<?xml version="1.0" encoding="UTF-8" standalone="no"?>
<!-- Created with Inkscape (http://www.inkscape.org/) -->

<svg
   width="1024mm"
   height="1024mm"
   viewBox="0 0 1024 1024"
   version="1.1"
   id="svg1"
   sodipodi:docname="favicon.svg"
   inkscape:export-filename="favicon.svg"
   inkscape:export-xdpi="96"
   inkscape:export-ydpi="96"
   xmlns:inkscape="http://www.inkscape.org/namespaces/inkscape"
   xmlns:sodipodi="http://sodipodi.sourceforge.net/DTD/sodipodi-0.dtd"
   xmlns="http://www.w3.org/2000/svg"
   xmlns:svg="http://www.w3.org/2000/svg">
  <sodipodi:namedview
     id="namedview1"
     pagecolor="#ffffff"
     bordercolor="#000000"
     borderopacity="0.25"
     inkscape:showpageshadow="2"
     inkscape:pageopacity="0.0"
     inkscape:pagecheckerboard="0"
     inkscape:deskcolor="#d1d1d1"
     inkscape:document-units="mm" />
  <defs
     id="defs1" />
  <g
     id="layer1"
     transform="translate(0.45224661,-2.1019278)">
    <rect
       style="display:inline;fill:#000000;stroke-width:0.264583"
       id="rect1"
       width="1024"
       height="1024"
       x="-0.45224661"
       y="2.1019278" />
    <path
       d="m 314.55943,385.36792 v -142.3453 h 48.91867 q 22.15374,0 34.18292,11.22724 12.12942,11.22723 12.12942,31.87733 0,15.3372 -6.21507,25.86273 -6.21508,10.42529 -17.94353,15.33721 l 29.37125,58.04079 h -24.05836 l -25.7625,-54.13131 q -0.90219,0 -1.70413,0 h -28.06809 v 54.13131 z m 20.85058,-73.17751 h 28.06809 q 11.92894,0 18.54498,-6.31532 6.7163,-6.31532 6.7163,-17.74304 0,-12.5304 -6.7163,-19.24669 -6.61604,-6.81653 -18.54498,-6.81653 h -28.06809 z m 100.44366,73.17751 v -142.3453 h 20.85058 v 76.88651 q 13.73331,-1.4034 23.75763,-8.32018 10.02431,-6.91678 16.54012,-17.6428 6.5158,-10.72602 9.62334,-23.85787 3.20778,-13.13186 3.20778,-27.06566 h 20.6501 q 0,21.95326 -7.418,41.90165 -7.31775,19.94839 -21.25155,33.6817 l 35.48608,66.76195 H 513.0409 l -28.16832,-54.23155 q -6.31532,3.40826 -13.33235,5.61361 -7.01702,2.10511 -14.83598,2.90706 v 45.71088 z"
       id="text1"
       style="font-size:205.298px;font-family:'CaskaydiaCove Nerd Font';-inkscape-font-specification:'CaskaydiaCove Nerd Font';white-space:pre;inline-size:408.134;fill:#ffffff;stroke-width:0.264583"
       transform="matrix(3.5192233,0,0,3.5192233,-987.39359,-595.14918)"
       aria-label="RK" />
  </g>
</svg>
