<?xml version="1.0" encoding="UTF-8" standalone="no"?>
<!-- Created with Inkscape (http://www.inkscape.org/) -->

<svg
   width="1024mm"
   height="1024mm"
   viewBox="0 0 1024 1024"
   version="1.1"
   id="svg1"
   xmlns="http://www.w3.org/2000/svg"
   xmlns:svg="http://www.w3.org/2000/svg">
  <defs
     id="defs1" />
  <g
     id="layer1"
     transform="translate(0.45224661,-2.1019278)">
    <rect
       style="display:inline;fill:#000000;stroke-width:0.264583"
       id="rect1"
       width="1024"
       height="1024"
       x="-0.45224661"
       y="2.1019278" />
    <path
       d="m 358.06497,387.37278 q -23.4569,0 -36.18778,-13.03161 -12.73089,-13.13185 -12.73089,-36.689 h 20.85058 q 0,15.03648 7.418,23.35666 7.51823,8.32018 21.1513,8.32018 13.2321,0 20.34937,-8.21994 7.2175,-8.32018 7.2175,-23.4569 v -75.58334 h -36.48851 v -19.04621 h 57.33909 v 94.62955 q 0,23.65739 -12.93137,36.689 -12.93136,13.03161 -35.98729,13.03161 z m 77.7887,-2.00486 v -142.3453 h 20.85058 v 76.88651 q 13.73331,-1.4034 23.75763,-8.32018 10.02431,-6.91678 16.54012,-17.6428 6.5158,-10.72602 9.62334,-23.85787 3.20778,-13.13186 3.20778,-27.06566 h 20.6501 q 0,21.95326 -7.418,41.90165 -7.31775,19.94839 -21.25155,33.6817 l 35.48608,66.76195 H 513.0409 l -28.16832,-54.23155 q -6.31532,3.40826 -13.33235,5.61361 -7.01702,2.10511 -14.83598,2.90706 v 45.71088 z"
       id="text1"
       style="-inkscape-font-specification:'CaskaydiaCove Nerd Font';fill:#ffffff;stroke-width:0.264583"
       transform="matrix(3.5192233,0,0,3.5192233,-977.86858,-595.14918)"
       aria-label="JK" />
  </g>
</svg>
